<svg xmlns="http://www.w3.org/2000/svg" xmlns:xlink="http://www.w3.org/1999/xlink" width="341" zoomAndPan="magnify" viewBox="0 0 255.75 60" height="80" preserveAspectRatio="xMidYMid meet" version="1.2"><defs><clipPath id="0eab6aa1d3"><path d="M 0 0.03125 L 255.5 0.03125 L 255.5 59.96875 L 0 59.96875 Z M 0 0.03125 "/></clipPath><clipPath id="cee6fb48e1"><path d="M 0 3.796875 L 255 3.796875 L 255 56.234375 L 0 56.234375 Z M 0 3.796875 "/></clipPath><clipPath id="b6fd23588c"><path d="M 26.21875 3.796875 L 228.742188 3.796875 C 235.695312 3.796875 242.363281 6.558594 247.28125 11.476562 C 252.199219 16.390625 254.960938 23.0625 254.960938 30.015625 C 254.960938 36.96875 252.199219 43.636719 247.28125 48.554688 C 242.363281 53.472656 235.695312 56.234375 228.742188 56.234375 L 26.21875 56.234375 C 19.265625 56.234375 12.597656 53.472656 7.679688 48.554688 C 2.761719 43.636719 0 36.96875 0 30.015625 C 0 23.0625 2.761719 16.390625 7.679688 11.476562 C 12.597656 6.558594 19.265625 3.796875 26.21875 3.796875 Z M 26.21875 3.796875 "/></clipPath><clipPath id="1a4f9230e2"><path d="M 170.097656 11.332031 L 227.6875 11.332031 L 227.6875 56.015625 L 170.097656 56.015625 Z M 170.097656 11.332031 "/></clipPath></defs><g id="787304e057"><g clip-rule="nonzero" clip-path="url(#0eab6aa1d3)"><path style=" stroke:none;fill-rule:nonzero;fill:#ffffff;fill-opacity:1;" d="M 0 0.03125 L 255.5 0.03125 L 255.5 59.96875 L 0 59.96875 Z M 0 0.03125 "/></g><g clip-rule="nonzero" clip-path="url(#cee6fb48e1)"><g clip-rule="nonzero" clip-path="url(#b6fd23588c)"><path style=" stroke:none;fill-rule:nonzero;fill:#e64b42;fill-opacity:1;" d="M 0 3.796875 L 255.027344 3.796875 L 255.027344 56.234375 L 0 56.234375 Z M 0 3.796875 "/></g></g><g clip-rule="nonzero" clip-path="url(#1a4f9230e2)"><path style=" stroke:none;fill-rule:nonzero;fill:#ffffff;fill-opacity:1;" d="M 227.230469 42.121094 C 226.871094 40.007812 225.507812 31.085938 225.375 26.058594 C 225.394531 23.925781 224.886719 22.539062 223.863281 21.941406 C 223.078125 21.480469 222.0625 21.546875 221.070312 22.121094 C 220.425781 22.492188 219.902344 23.101562 219.464844 23.988281 C 219.382812 23.855469 219.300781 23.722656 219.21875 23.59375 C 218.84375 23.003906 218.472656 22.394531 218.109375 21.804688 C 217.257812 20.421875 216.378906 18.988281 215.421875 17.628906 C 215.296875 17.453125 215.171875 17.269531 215.039062 17.082031 C 213.808594 15.320312 212.410156 13.324219 211.3125 12.492188 C 210.109375 11.578125 208.8125 11.335938 207.75 11.832031 C 207.292969 12.042969 206.921875 12.378906 206.660156 12.789062 C 206.605469 12.765625 206.550781 12.742188 206.492188 12.71875 C 205.285156 12.230469 203.914062 12.335938 203 12.984375 C 202.226562 13.535156 201.824219 14.417969 201.867188 15.484375 C 201.367188 15.746094 200.703125 16.226562 200.226562 17.050781 C 199.621094 18.09375 199.480469 19.390625 199.800781 20.902344 C 199.351562 21.335938 199.023438 21.855469 198.789062 22.367188 C 198.554688 21.855469 198.226562 21.335938 197.777344 20.902344 C 198.097656 19.390625 197.957031 18.09375 197.351562 17.050781 C 196.875 16.226562 196.210938 15.746094 195.710938 15.484375 C 195.753906 14.421875 195.351562 13.535156 194.578125 12.984375 C 193.664062 12.335938 192.292969 12.230469 191.085938 12.71875 C 191.027344 12.738281 190.972656 12.765625 190.917969 12.789062 C 190.65625 12.378906 190.285156 12.042969 189.828125 11.832031 C 188.769531 11.335938 187.46875 11.578125 186.265625 12.492188 C 185.167969 13.324219 183.769531 15.320312 182.539062 17.082031 C 182.40625 17.269531 182.28125 17.453125 182.15625 17.628906 C 181.199219 18.988281 180.316406 20.425781 179.464844 21.8125 C 179.105469 22.398438 178.730469 23.003906 178.359375 23.59375 C 178.277344 23.722656 178.195312 23.855469 178.113281 23.988281 C 177.675781 23.101562 177.152344 22.492188 176.507812 22.121094 C 175.515625 21.546875 174.5 21.480469 173.714844 21.941406 C 172.691406 22.539062 172.183594 23.925781 172.203125 26.058594 C 172.070312 31.074219 170.707031 40.003906 170.347656 42.121094 C 170.132812 43.394531 170.222656 44.578125 170.628906 45.738281 C 171.433594 48.054688 174.621094 52.964844 176.445312 55.683594 L 177.824219 54.757812 C 174.832031 50.308594 172.730469 46.734375 172.195312 45.191406 C 171.882812 44.304688 171.816406 43.390625 171.984375 42.398438 C 172.347656 40.253906 173.730469 31.199219 173.863281 26.085938 C 173.863281 26.074219 173.863281 26.066406 173.863281 26.054688 C 173.839844 23.953125 174.382812 23.46875 174.550781 23.371094 C 174.925781 23.152344 175.507812 23.457031 175.679688 23.558594 C 176.242188 23.882812 176.726562 24.710938 177.121094 26.019531 C 178.347656 30.496094 178.625 35.269531 178.316406 39.878906 C 180.878906 39.363281 183.355469 41.1875 185.023438 42.960938 C 183.617188 41.257812 181.253906 39.148438 178.859375 39.296875 C 179.40625 35.046875 179.375 30.574219 178.589844 26.347656 C 178.609375 26.328125 178.625 26.304688 178.640625 26.28125 L 178.957031 25.769531 C 179.246094 25.308594 179.503906 24.890625 179.765625 24.476562 C 180.140625 23.878906 180.515625 23.269531 180.878906 22.679688 C 181.71875 21.3125 182.585938 19.902344 183.511719 18.582031 C 183.636719 18.40625 183.765625 18.222656 183.898438 18.035156 C 184.945312 16.539062 186.378906 14.488281 187.269531 13.8125 C 187.96875 13.28125 188.644531 13.105469 189.125 13.332031 C 189.445312 13.480469 189.894531 13.988281 189.394531 16.234375 C 188.304688 21.136719 185.332031 25.570312 182.753906 29.816406 C 185.726562 25.75 190.785156 20.109375 191.140625 14.640625 C 191.199219 14.582031 191.414062 14.371094 191.707031 14.253906 C 192.378906 13.984375 193.167969 14.015625 193.621094 14.339844 C 193.9375 14.5625 194.078125 14.917969 194.054688 15.425781 C 194.050781 15.539062 194.019531 15.757812 194 15.867188 C 194 15.875 194 15.882812 194 15.890625 C 194 15.890625 194 15.890625 193.996094 15.890625 C 192.957031 20.867188 190.765625 25.527344 188.445312 30.015625 C 190.984375 25.871094 193.398438 21.558594 194.847656 16.894531 C 195.457031 17.171875 196.832031 18.136719 196.050781 20.992188 C 196.050781 21 196.050781 21.007812 196.046875 21.015625 C 195.074219 24.617188 193.691406 28.113281 192.136719 31.5 C 193.875 28.519531 195.472656 25.433594 196.75 22.222656 C 197.59375 23.148438 197.734375 24.679688 197.742188 24.785156 C 197.808594 26.277344 197.382812 29.726562 193.800781 36.128906 C 192.757812 37.996094 193.558594 39.46875 194.332031 40.890625 C 194.867188 41.875 195.472656 42.988281 195.679688 44.476562 C 196.03125 47.058594 194.65625 51.4375 192.332031 55.128906 L 193.734375 56.015625 C 196.289062 51.957031 197.730469 47.230469 197.320312 44.25 C 197.074219 42.464844 196.363281 41.152344 195.789062 40.097656 C 195 38.648438 194.675781 37.964844 195.25 36.9375 C 197.164062 33.515625 198.222656 30.851562 198.789062 28.835938 C 199.359375 30.851562 200.417969 33.511719 202.332031 36.9375 C 202.90625 37.964844 202.582031 38.648438 201.792969 40.097656 C 201.21875 41.152344 200.503906 42.464844 200.261719 44.25 C 199.851562 47.230469 201.292969 51.957031 203.84375 56.015625 L 205.25 55.132812 C 202.925781 51.4375 201.546875 47.058594 201.902344 44.476562 C 202.105469 42.988281 202.714844 41.875 203.25 40.890625 C 204.023438 39.46875 204.824219 37.996094 203.777344 36.128906 C 200.199219 29.726562 199.773438 26.277344 199.839844 24.785156 C 199.847656 24.679688 199.988281 23.148438 200.828125 22.222656 C 202.109375 25.433594 203.707031 28.519531 205.445312 31.5 C 203.886719 28.113281 202.503906 24.617188 201.53125 21.015625 C 201.53125 21.007812 201.53125 21 201.527344 20.992188 C 200.746094 18.128906 202.128906 17.167969 202.730469 16.894531 C 204.179688 21.558594 206.597656 25.871094 209.132812 30.015625 C 206.8125 25.527344 203.777344 17.515625 203.523438 15.425781 C 203.464844 14.921875 203.644531 14.5625 203.957031 14.339844 C 204.410156 14.019531 205.199219 13.984375 205.875 14.253906 C 206.171875 14.375 206.386719 14.585938 206.4375 14.640625 C 206.792969 20.109375 211.851562 25.75 214.828125 29.816406 C 212.09375 25.316406 207.90625 19.65625 207.914062 14.125 C 207.941406 13.777344 208.144531 13.476562 208.453125 13.332031 C 208.9375 13.105469 209.613281 13.28125 210.308594 13.8125 C 211.203125 14.488281 212.636719 16.539062 213.683594 18.035156 C 213.8125 18.222656 213.941406 18.40625 214.066406 18.582031 C 214.996094 19.902344 215.859375 21.3125 216.699219 22.675781 C 217.0625 23.265625 217.4375 23.878906 217.816406 24.480469 C 218.070312 24.882812 218.324219 25.289062 218.601562 25.738281 L 218.941406 26.28125 C 218.957031 26.304688 218.972656 26.328125 218.988281 26.347656 C 218.203125 30.574219 218.171875 35.046875 218.722656 39.296875 C 216.328125 39.148438 213.964844 41.257812 212.554688 42.960938 C 214.222656 41.191406 216.699219 39.363281 219.265625 39.878906 C 218.957031 35.269531 219.230469 30.496094 220.457031 26.023438 C 220.851562 24.714844 221.335938 23.882812 221.902344 23.558594 C 222.070312 23.457031 222.65625 23.152344 223.027344 23.371094 C 223.195312 23.46875 223.742188 23.953125 223.71875 26.054688 C 223.71875 26.066406 223.71875 26.074219 223.71875 26.085938 C 223.851562 31.210938 225.234375 40.257812 225.597656 42.398438 C 225.765625 43.390625 225.695312 44.304688 225.386719 45.191406 C 224.851562 46.734375 222.746094 50.308594 219.757812 54.757812 L 221.132812 55.683594 C 222.960938 52.964844 226.144531 48.054688 226.953125 45.738281 C 227.355469 44.578125 227.445312 43.394531 227.230469 42.121094 Z M 227.230469 42.121094 "/></g><g style="fill:#ffffff;fill-opacity:1;"><g transform="translate(35.783765, 39.387272)"><path style="stroke:none" d="M 14.640625 -1.796875 L 14.640625 0 L 1.125 0 L 1.125 -1.796875 L 3.609375 -1.796875 C 3.109375 -2.253906 2.710938 -2.789062 2.421875 -3.40625 C 2.140625 -4.019531 2 -4.664062 2 -5.34375 C 2 -6.375 2.289062 -7.296875 2.875 -8.109375 C 3.46875 -8.921875 4.28125 -9.554688 5.3125 -10.015625 C 6.34375 -10.484375 7.503906 -10.71875 8.796875 -10.71875 C 9.628906 -10.71875 10.539062 -10.613281 11.53125 -10.40625 C 12.519531 -10.195312 13.351562 -9.9375 14.03125 -9.625 L 13.171875 -7.796875 C 12.597656 -8.066406 11.90625 -8.289062 11.09375 -8.46875 C 10.289062 -8.644531 9.523438 -8.734375 8.796875 -8.734375 C 7.398438 -8.734375 6.265625 -8.414062 5.390625 -7.78125 C 4.523438 -7.15625 4.09375 -6.34375 4.09375 -5.34375 C 4.09375 -4.6875 4.285156 -4.082031 4.671875 -3.53125 C 5.066406 -2.988281 5.601562 -2.5625 6.28125 -2.25 C 6.957031 -1.945312 7.710938 -1.796875 8.546875 -1.796875 Z M 14.640625 -1.796875 "/></g></g><g style="fill:#ffffff;fill-opacity:1;"><g transform="translate(51.546463, 39.387272)"><path style="stroke:none" d="M 7.34375 -1.984375 C 7.5625 -1.984375 7.703125 -1.898438 7.765625 -1.734375 C 7.835938 -1.578125 7.875 -1.328125 7.875 -0.984375 C 7.875 -0.648438 7.835938 -0.398438 7.765625 -0.234375 C 7.703125 -0.078125 7.5625 0 7.34375 0 L 2.40625 0 L 2.40625 -19.578125 L 4.484375 -19.578125 L 4.484375 -1.984375 Z M 7.34375 -1.984375 "/></g></g><g style="fill:#ffffff;fill-opacity:1;"><g transform="translate(58.89348, 39.387272)"><path style="stroke:none" d="M 15.25 -1.984375 L 15.25 0 L 0 0 C -0.21875 0 -0.359375 -0.078125 -0.421875 -0.234375 C -0.492188 -0.398438 -0.53125 -0.648438 -0.53125 -0.984375 C -0.53125 -1.328125 -0.492188 -1.578125 -0.421875 -1.734375 C -0.359375 -1.898438 -0.21875 -1.984375 0 -1.984375 L 3.90625 -1.984375 C 2.6875 -3.242188 2.078125 -4.765625 2.078125 -6.546875 C 2.078125 -7.878906 2.40625 -9.078125 3.0625 -10.140625 C 3.726562 -11.210938 4.628906 -12.054688 5.765625 -12.671875 C 6.910156 -13.285156 8.160156 -13.59375 9.515625 -13.59375 C 11.078125 -13.59375 12.820312 -13.160156 14.75 -12.296875 L 13.8125 -10.546875 C 12.175781 -11.265625 10.742188 -11.625 9.515625 -11.625 C 8.492188 -11.625 7.570312 -11.398438 6.75 -10.953125 C 5.9375 -10.503906 5.300781 -9.894531 4.84375 -9.125 C 4.394531 -8.363281 4.171875 -7.515625 4.171875 -6.578125 C 4.171875 -5.484375 4.476562 -4.523438 5.09375 -3.703125 C 5.707031 -2.890625 6.53125 -2.316406 7.5625 -1.984375 Z M 15.25 -1.984375 "/></g></g><g style="fill:#ffffff;fill-opacity:1;"><g transform="translate(74.950056, 39.387272)"><path style="stroke:none" d="M 4.734375 -15.046875 C 6.742188 -14.617188 8.488281 -13.78125 9.96875 -12.53125 C 11.457031 -11.28125 12.609375 -9.710938 13.421875 -7.828125 C 14.234375 -5.953125 14.640625 -3.867188 14.640625 -1.578125 C 12.179688 -0.523438 9.347656 0 6.140625 0 C 4.347656 0 2.65625 -0.175781 1.0625 -0.53125 L 1.0625 -2.5625 C 2.65625 -2.175781 4.359375 -1.984375 6.171875 -1.984375 C 8.472656 -1.984375 10.582031 -2.285156 12.5 -2.890625 C 12.269531 -5.523438 11.441406 -7.757812 10.015625 -9.59375 C 8.585938 -11.425781 6.675781 -12.601562 4.28125 -13.125 Z M 4.734375 -15.046875 "/></g></g><g style="fill:#ffffff;fill-opacity:1;"><g transform="translate(91.033353, 39.387272)"><path style="stroke:none" d=""/></g></g><g style="fill:#ffffff;fill-opacity:1;"><g transform="translate(97.52545, 39.387272)"><path style="stroke:none" d="M 24.84375 -1.984375 C 25.039062 -1.984375 25.179688 -1.898438 25.265625 -1.734375 C 25.347656 -1.578125 25.390625 -1.328125 25.390625 -0.984375 C 25.390625 -0.660156 25.347656 -0.414062 25.265625 -0.25 C 25.179688 -0.0820312 25.039062 0 24.84375 0 L 23.9375 0 C 22.375 0 21.109375 -0.398438 20.140625 -1.203125 C 19.359375 -0.398438 18.078125 0 16.296875 0 L 6.96875 0 C 5.175781 0 3.789062 -0.476562 2.8125 -1.4375 C 1.832031 -2.40625 1.34375 -3.734375 1.34375 -5.421875 C 1.34375 -6.578125 1.582031 -7.585938 2.0625 -8.453125 C 2.539062 -9.316406 3.242188 -10.097656 4.171875 -10.796875 L 5.53125 -9.375 C 4.800781 -8.75 4.265625 -8.125 3.921875 -7.5 C 3.585938 -6.882812 3.421875 -6.191406 3.421875 -5.421875 C 3.421875 -4.359375 3.738281 -3.519531 4.375 -2.90625 C 5.019531 -2.289062 5.941406 -1.984375 7.140625 -1.984375 L 16.171875 -1.984375 C 17.304688 -1.984375 18.09375 -2.195312 18.53125 -2.625 C 18.976562 -3.050781 19.203125 -3.78125 19.203125 -4.8125 L 19.203125 -12.53125 L 21.296875 -12.53125 L 21.296875 -4.78125 C 21.296875 -3.945312 21.207031 -3.253906 21.03125 -2.703125 C 21.65625 -2.222656 22.457031 -1.984375 23.4375 -1.984375 Z M 11.5625 5 C 11.175781 5 10.851562 4.859375 10.59375 4.578125 C 10.332031 4.304688 10.203125 3.96875 10.203125 3.5625 C 10.203125 3.144531 10.332031 2.800781 10.59375 2.53125 C 10.851562 2.269531 11.175781 2.140625 11.5625 2.140625 C 11.957031 2.140625 12.285156 2.269531 12.546875 2.53125 C 12.804688 2.800781 12.9375 3.144531 12.9375 3.5625 C 12.9375 3.96875 12.804688 4.304688 12.546875 4.578125 C 12.285156 4.859375 11.957031 5 11.5625 5 Z M 11.5625 5 "/></g></g><g style="fill:#ffffff;fill-opacity:1;"><g transform="translate(122.371729, 39.387272)"><path style="stroke:none" d="M 7.140625 -1.984375 C 7.347656 -1.984375 7.488281 -1.898438 7.5625 -1.734375 C 7.632812 -1.578125 7.671875 -1.328125 7.671875 -0.984375 C 7.671875 -0.648438 7.632812 -0.398438 7.5625 -0.234375 C 7.488281 -0.078125 7.347656 0 7.140625 0 L 0 0 C -0.21875 0 -0.359375 -0.078125 -0.421875 -0.234375 C -0.492188 -0.398438 -0.53125 -0.648438 -0.53125 -0.984375 C -0.53125 -1.328125 -0.492188 -1.578125 -0.421875 -1.734375 C -0.359375 -1.898438 -0.21875 -1.984375 0 -1.984375 L 2.25 -1.984375 L 2.25 -19.578125 L 4.328125 -19.578125 L 4.328125 -1.984375 Z M 7.140625 -1.984375 "/></g></g><g style="fill:#ffffff;fill-opacity:1;"><g transform="translate(129.505013, 39.387272)"><path style="stroke:none" d="M 14.15625 -13.25 C 15.800781 -13.25 17.195312 -12.863281 18.34375 -12.09375 C 19.488281 -11.332031 20.347656 -10.304688 20.921875 -9.015625 C 21.492188 -7.722656 21.78125 -6.285156 21.78125 -4.703125 L 21.78125 0 L 0 0 C -0.21875 0 -0.359375 -0.078125 -0.421875 -0.234375 C -0.492188 -0.398438 -0.53125 -0.648438 -0.53125 -0.984375 C -0.53125 -1.328125 -0.492188 -1.578125 -0.421875 -1.734375 C -0.359375 -1.898438 -0.21875 -1.984375 0 -1.984375 L 3.3125 -1.984375 L 3.3125 -19.578125 L 5.390625 -19.578125 L 5.390625 -6.25 C 6.140625 -8.300781 7.238281 -9.976562 8.6875 -11.28125 C 10.144531 -12.59375 11.96875 -13.25 14.15625 -13.25 Z M 19.6875 -1.984375 L 19.6875 -4.703125 C 19.6875 -6.765625 19.191406 -8.375 18.203125 -9.53125 C 17.210938 -10.695312 15.875 -11.28125 14.1875 -11.28125 C 12.6875 -11.28125 11.3125 -10.832031 10.0625 -9.9375 C 8.820312 -9.050781 7.804688 -7.894531 7.015625 -6.46875 C 6.222656 -5.039062 5.71875 -3.546875 5.5 -1.984375 Z M 19.6875 -1.984375 "/></g></g></g></svg>